<svg xmlns="http://www.w3.org/2000/svg" width="102" height="75" viewBox="0 0 102 75" fill="none">
    <path d="M57.027 18.8206C72.5513 18.8206 81.3557 28.6318 82.6342 40.475H83.0246C93.0131 40.475 101.112 48.1855 101.112 57.6975C101.112 67.2094 93.0131 74.92 83.0246 74.92H31.0293C21.0409 74.92 12.9418 67.2094 12.9418 57.6975C12.9418 48.1855 21.0409 40.475 31.0293 40.475H31.4198C32.7109 28.5508 41.5027 18.8206 57.027 18.8206ZM40.6021 0.12085C49.7718 0.12085 57.7701 5.28199 61.7189 12.8679C60.1622 12.679 58.5953 12.5853 57.027 12.5874C41.975 12.5874 31.0041 20.7342 27.0868 33.0699L26.6964 34.4038L26.4067 35.5694L25.3675 35.7564C21.5643 36.5231 18.0119 38.2096 15.0273 40.6655C12.0427 43.1213 9.71862 46.2702 8.26247 49.8311C5.26222 48.0219 2.92316 45.3128 1.5853 42.0976C0.247442 38.8824 -0.0194728 35.3287 0.823355 31.9531C1.66618 28.5774 3.57482 25.5558 6.27182 23.3275C8.96881 21.0991 12.3136 19.7802 15.8199 19.5624L17.2181 19.5312C18.1892 14.0916 21.0654 9.16451 25.3417 5.6149C29.618 2.06529 35.021 0.120099 40.6021 0.12085Z" fill="#F6C8A4"/>
</svg>