<svg xmlns="http://www.w3.org/2000/svg" width="81" height="84" viewBox="0 0 81 84" fill="none">
    <path d="M75.0084 21.7602C72.1267 18.8854 68.2776 16.8783 63.8099 15.9178C63.3911 15.8276 62.9991 15.6409 62.6653 15.3724C62.3314 15.1039 62.065 14.761 61.8871 14.3713C60.2442 10.7829 57.7567 7.64572 54.6374 5.22794C50.6457 2.17444 45.7914 0.560913 40.5968 0.560913C34.6776 0.542123 28.9586 2.70251 24.5302 6.63011C20.3718 10.3349 17.5005 15.4521 16.2083 21.3787C16.1005 21.8804 15.855 22.342 15.4992 22.7118C15.1434 23.0815 14.6915 23.3446 14.1944 23.4716C9.89852 24.5542 8.05817 25.6264 5.7384 27.6919C2.44949 30.62 0.73114 34.6082 0.73114 39.1894C0.73114 44.4389 2.66084 48.7502 6.31061 51.6577C9.50846 54.2025 13.8765 55.548 18.9456 55.548H59.1549C64.8599 55.548 70.1713 53.5788 74.1046 50.0012C78.2011 46.281 80.4624 41.1225 80.4624 35.4777C80.4624 30.0666 78.5723 25.324 75.0084 21.7602Z" fill="#C9E8E0"/>
    <path d="M15.853 74.7935C15.3554 74.7932 14.8672 74.6578 14.4405 74.4019C14.0138 74.146 13.6645 73.7791 13.43 73.3402C13.1954 72.9014 13.0843 72.4072 13.1085 71.9102C13.1328 71.4132 13.2914 70.9321 13.5676 70.5182L19.0663 62.2702C19.2667 61.9698 19.5242 61.7119 19.8243 61.5111C20.1244 61.3103 20.4611 61.1705 20.8151 61.0998C21.1692 61.0291 21.5337 61.0289 21.8879 61.0991C22.2421 61.1693 22.5789 61.3085 22.8793 61.5089C23.1796 61.7093 23.4376 61.9669 23.6384 62.267C23.8392 62.567 23.9789 62.9037 24.0496 63.2578C24.1203 63.6118 24.1205 63.9764 24.0503 64.3305C23.9802 64.6847 23.8409 65.0216 23.6405 65.3219L18.1418 73.57C17.8905 73.9466 17.5501 74.2554 17.1508 74.4688C16.7515 74.6822 16.3057 74.7938 15.853 74.7935Z" fill="#C9E8E0"/>
    <path d="M24.1011 83.0415C23.6036 83.0409 23.1157 82.9054 22.6892 82.6493C22.2627 82.3933 21.9137 82.0263 21.6794 81.5876C21.445 81.1488 21.3341 80.6547 21.3584 80.1578C21.3827 79.661 21.5413 79.1801 21.8174 78.7663L32.8148 62.2702C33.0152 61.9698 33.2728 61.7119 33.5728 61.5111C33.8729 61.3103 34.2096 61.1705 34.5636 61.0998C34.9177 61.0291 35.2822 61.0289 35.6364 61.0991C35.9906 61.1693 36.3275 61.3085 36.6278 61.5089C36.9282 61.7093 37.1861 61.9669 37.3869 62.267C37.5877 62.567 37.7274 62.9037 37.7981 63.2578C37.8688 63.6118 37.8691 63.9764 37.7989 64.3305C37.7287 64.6847 37.5894 65.0216 37.389 65.3219L26.3916 81.8181C26.1402 82.1949 25.7995 82.5038 25.3999 82.7173C25.0003 82.9307 24.5541 83.0421 24.1011 83.0415Z" fill="#C9E8E0"/>
    <path d="M43.3463 74.7935C42.8487 74.7932 42.3605 74.6579 41.9338 74.4019C41.5071 74.146 41.1578 73.7791 40.9233 73.3403C40.6887 72.9014 40.5776 72.4072 40.6018 71.9102C40.6261 71.4132 40.7847 70.9321 41.0609 70.5182L46.5596 62.2702C46.9643 61.6636 47.5934 61.2426 48.3084 61.0998C49.0235 60.9571 49.766 61.1042 50.3726 61.5089C50.9792 61.9136 51.4002 62.5427 51.5429 63.2578C51.6857 63.9729 51.5385 64.7154 51.1338 65.3219L45.6351 73.57C45.3838 73.9466 45.0434 74.2554 44.6441 74.4688C44.2449 74.6822 43.799 74.7938 43.3463 74.7935Z" fill="#C9E8E0"/>
    <path d="M51.5945 83.0415C51.0969 83.0412 50.6088 82.9059 50.182 82.65C49.7553 82.3941 49.4061 82.0271 49.1715 81.5883C48.9369 81.1495 48.8258 80.6553 48.8501 80.1583C48.8743 79.6613 49.033 79.1802 49.3091 78.7663L60.3065 62.2702C60.7112 61.6636 61.3403 61.2426 62.0554 61.0998C62.7705 60.9571 63.513 61.1042 64.1195 61.5089C64.7261 61.9136 65.1471 62.5427 65.2899 63.2578C65.4326 63.9729 65.2855 64.7154 64.8808 65.3219L53.8833 81.8181C53.6321 82.1947 53.2917 82.5034 52.8924 82.7169C52.4931 82.9303 52.0473 83.0418 51.5945 83.0415Z" fill="#C9E8E0"/>
</svg>