<svg xmlns="http://www.w3.org/2000/svg" width="77" height="77" viewBox="0 0 77 77" fill="none">
    <path d="M38.1968 0.439209C38.9564 0.439209 39.6849 0.740953 40.222 1.27806C40.7591 1.81517 41.0608 2.54364 41.0608 3.30323V9.03126C41.0608 9.79085 40.7591 10.5193 40.222 11.0564C39.6849 11.5935 38.9564 11.8953 38.1968 11.8953C37.4372 11.8953 36.7088 11.5935 36.1716 11.0564C35.6345 10.5193 35.3328 9.79085 35.3328 9.03126V3.30323C35.3328 2.54364 35.6345 1.81517 36.1716 1.27806C36.7088 0.740953 37.4372 0.439209 38.1968 0.439209ZM57.2903 38.6261C57.2903 43.69 55.2786 48.5465 51.6979 52.1272C48.1172 55.708 43.2607 57.7196 38.1968 57.7196C33.1329 57.7196 28.2764 55.708 24.6957 52.1272C21.115 48.5465 19.1034 43.69 19.1034 38.6261C19.1034 33.5622 21.115 28.7057 24.6957 25.125C28.2764 21.5443 33.1329 19.5327 38.1968 19.5327C43.2607 19.5327 48.1172 21.5443 51.6979 25.125C55.2786 28.7057 57.2903 33.5622 57.2903 38.6261ZM73.5197 41.4901C74.2793 41.4901 75.0078 41.1884 75.5449 40.6513C76.082 40.1142 76.3837 39.3857 76.3837 38.6261C76.3837 37.8665 76.082 37.1381 75.5449 36.601C75.0078 36.0638 74.2793 35.7621 73.5197 35.7621H67.7917C67.0321 35.7621 66.3036 36.0638 65.7665 36.601C65.2294 37.1381 64.9277 37.8665 64.9277 38.6261C64.9277 39.3857 65.2294 40.1142 65.7665 40.6513C66.3036 41.1884 67.0321 41.4901 67.7917 41.4901H73.5197ZM38.1968 65.357C38.9564 65.357 39.6849 65.6587 40.222 66.1958C40.7591 66.7329 41.0608 67.4614 41.0608 68.221V73.949C41.0608 74.7086 40.7591 75.4371 40.222 75.9742C39.6849 76.5113 38.9564 76.813 38.1968 76.813C37.4372 76.813 36.7088 76.5113 36.1716 75.9742C35.6345 75.4371 35.3328 74.7086 35.3328 73.949V68.221C35.3328 67.4614 35.6345 66.7329 36.1716 66.1958C36.7088 65.6587 37.4372 65.357 38.1968 65.357ZM8.60196 41.4901C9.36154 41.4901 10.09 41.1884 10.6271 40.6513C11.1642 40.1142 11.466 39.3857 11.466 38.6261C11.466 37.8665 11.1642 37.1381 10.6271 36.601C10.09 36.0638 9.36154 35.7621 8.60196 35.7621H2.87392C2.11434 35.7621 1.38586 36.0638 0.848754 36.601C0.311647 37.1381 0.00990295 37.8665 0.00990295 38.6261C0.00990295 39.3857 0.311647 40.1142 0.848754 40.6513C1.38586 41.1884 2.11434 41.4901 2.87392 41.4901H8.60196ZM8.4874 8.9167C9.0244 8.38037 9.75234 8.07911 10.5113 8.07911C11.2703 8.07911 11.9982 8.38037 12.5352 8.9167L18.2632 14.6447C18.7691 15.1877 19.0446 15.9058 19.0315 16.6477C19.0184 17.3897 18.7178 18.0976 18.1931 18.6224C17.6683 19.1471 16.9604 19.4477 16.2184 19.4608C15.4764 19.4739 14.7584 19.1985 14.2154 18.6926L8.4874 12.9645C7.95106 12.4275 7.64981 11.6996 7.64981 10.9406C7.64981 10.1816 7.95106 9.45371 8.4874 8.9167ZM12.5352 68.3355C12.273 68.6169 11.9568 68.8426 11.6055 68.9992C11.2542 69.1557 10.8749 69.2399 10.4904 69.2466C10.1058 69.2534 9.72385 69.1827 9.36723 69.0387C9.01061 68.8946 8.68666 68.6802 8.4147 68.4082C8.14273 68.1363 7.92833 67.8123 7.78429 67.4557C7.64024 67.0991 7.5695 66.7171 7.57629 66.3326C7.58307 65.948 7.66725 65.5687 7.82378 65.2174C7.98032 64.8661 8.20601 64.5499 8.4874 64.2877L14.2154 58.5597C14.4776 58.2783 14.7938 58.0526 15.1451 57.8961C15.4965 57.7395 15.8757 57.6554 16.2603 57.6486C16.6448 57.6418 17.0268 57.7125 17.3834 57.8566C17.74 58.0006 18.064 58.215 18.3359 58.487C18.6079 58.7589 18.8223 59.0829 18.9664 59.4395C19.1104 59.7962 19.1811 60.1781 19.1744 60.5627C19.1676 60.9472 19.0834 61.3265 18.9269 61.6778C18.7703 62.0291 18.5446 62.3453 18.2632 62.6075L12.5352 68.3355ZM67.9062 8.9167C67.3692 8.38037 66.6413 8.07911 65.8823 8.07911C65.1234 8.07911 64.3954 8.38037 63.8584 8.9167L58.1304 14.6447C57.6245 15.1877 57.3491 15.9058 57.3622 16.6477C57.3753 17.3897 57.6758 18.0976 58.2006 18.6224C58.7253 19.1471 59.4332 19.4477 60.1752 19.4608C60.9172 19.4739 61.6353 19.1985 62.1782 18.6926L67.9062 12.9645C68.4426 12.4275 68.7438 11.6996 68.7438 10.9406C68.7438 10.1816 68.4426 9.45371 67.9062 8.9167ZM63.8584 68.3355C64.1206 68.6169 64.4368 68.8426 64.7881 68.9992C65.1394 69.1557 65.5187 69.2399 65.9032 69.2466C66.2878 69.2534 66.6698 69.1827 67.0264 69.0387C67.383 68.8946 67.707 68.6802 67.9789 68.4082C68.2509 68.1363 68.4653 67.8123 68.6093 67.4557C68.7534 67.0991 68.8241 66.7171 68.8173 66.3326C68.8106 65.948 68.7264 65.5687 68.5698 65.2174C68.4133 64.8661 68.1876 64.5499 67.9062 64.2877L62.1782 58.5597C61.916 58.2783 61.5998 58.0526 61.2485 57.8961C60.8972 57.7395 60.5179 57.6554 60.1334 57.6486C59.7488 57.6418 59.3668 57.7125 59.0102 57.8566C58.6536 58.0006 58.3296 58.215 58.0577 58.487C57.7857 58.7589 57.5713 59.0829 57.4273 59.4395C57.2832 59.7962 57.2125 60.1781 57.2193 60.5627C57.2261 60.9472 57.3102 61.3265 57.4668 61.6778C57.6233 62.0291 57.849 62.3453 58.1304 62.6075L63.8584 68.3355Z" fill="#EFAA82"/>
</svg>