<svg xmlns="http://www.w3.org/2000/svg" width="70" height="47" viewBox="0 0 70 47" fill="none">
    <path d="M39.3765 11.75C50.1603 11.75 56.2763 17.9148 57.1644 25.3565H57.4356C64.374 25.3565 70 30.2014 70 36.1783C70 42.1551 64.374 47 57.4356 47H21.3174C14.379 47 8.75298 42.1551 8.75298 36.1783C8.75298 30.2014 14.379 25.3565 21.3174 25.3565H21.5886C22.4854 17.8639 28.5926 11.75 39.3765 11.75ZM27.967 1.36518e-07C34.3367 1.36518e-07 39.8927 3.243 42.6357 8.00958C41.5544 7.89089 40.4659 7.83203 39.3765 7.83333C28.9207 7.83333 21.2999 12.9524 18.5788 20.7035L18.3075 21.5417L18.1063 22.2741L17.3844 22.3916C14.7425 22.8734 12.2749 23.9331 10.2016 25.4762C8.1284 27.0193 6.51402 28.9979 5.50252 31.2354C3.41841 30.0986 1.79359 28.3964 0.864258 26.3761C-0.0650764 24.3558 -0.250487 22.1228 0.334978 20.0018C0.920443 17.8807 2.24627 15.982 4.11972 14.5819C5.99317 13.1817 8.3166 12.3529 10.7523 12.2161L11.7235 12.1965C12.3981 8.77854 14.396 5.68258 17.3665 3.45218C20.337 1.22179 24.0902 -0.000471629 27.967 1.36518e-07Z" fill="#E4F1F9"/>
</svg>